# MagicaVoxel @ Ephtracy

# group
o 

# material
mtllib Astronant1.mtl
usemtl palette

# normals
vn -1 0 0
vn 1 0 0
vn 0 0 1
vn 0 0 -1
vn 0 -1 0
vn 0 1 0

# texcoords
vt 0.00195312 0.5
vt 0.0214844 0.5
vt 0.0253906 0.5
vt 0.0292969 0.5
vt 0.0332031 0.5
vt 0.0410156 0.5
vt 0.0605469 0.5
vt 0.0644531 0.5
vt 0.0683594 0.5
vt 0.205078 0.5
vt 0.369141 0.5
vt 0.486328 0.5
vt 0.607422 0.5
vt 0.970703 0.5
vt 0.978516 0.5
vt 0.994141 0.5

# verts
v -0.6 0.6 0.6
v -0.6 0.6 0.5
v -0.6 0.6 0.4
v -0.6 0.7 0.6
v -0.6 0.7 0.5
v -0.6 0.7 0.4
v -0.5 0.4 0.4
v -0.5 0.4 0.3
v -0.5 0.5 0.6
v -0.5 0.5 0.5
v -0.5 0.5 0.4
v -0.5 0.5 0.3
v -0.5 0.5 -0.1
v -0.5 0.6 0.8
v -0.5 0.6 0.7
v -0.5 0.6 0.6
v -0.5 0.6 0.5
v -0.5 0.6 0.4
v -0.5 0.6 0.3
v -0.5 0.6 -0.1
v -0.5 0.7 0.8
v -0.5 0.7 0.7
v -0.5 0.7 0.6
v -0.5 0.7 0.5
v -0.5 0.7 0.4
v -0.5 0.7 0.3
v -0.5 0.8 0.6
v -0.5 0.8 0.5
v -0.5 0.8 0.4
v -0.4 0.7 0.1
v -0.4 0.7 -0.2
v -0.4 0.8 0.2
v -0.4 0.8 0.1
v -0.4 0.8 -0.2
v -0.4 0.8 -0.3
v -0.4 1.2 0.2
v -0.4 1.2 -0.3
v -0.3 0.4 0.1
v -0.3 0.4 -0.2
v -0.3 0.4 -0.3
v -0.3 0.4 -0.4
v -0.3 0.5 0.1
v -0.3 0.5 -5.96046e-08
v -0.3 0.5 -0.1
v -0.3 0.6 -5.96046e-08
v -0.3 0.6 -0.1
v -0.3 0.6 -0.2
v -0.3 0.6 -0.3
v -0.3 0.6 -0.4
v -0.3 0.7 0.2
v -0.3 0.7 0.1
v -0.3 0.7 -5.96046e-08
v -0.3 0.7 -0.1
v -0.3 0.7 -0.2
v -0.3 0.7 -0.3
v -0.3 0.8 0.3
v -0.3 0.8 0.2
v -0.3 0.8 0.1
v -0.3 0.8 -0.2
v -0.3 0.8 -0.3
v -0.3 0.8 -0.4
v -0.3 1.2 0.3
v -0.3 1.2 0.2
v -0.3 1.2 -0.3
v -0.3 1.2 -0.4
v -0.3 1.3 0.2
v -0.3 1.3 -0.3
v -0.2 0 0.1
v -0.2 0 -5.96046e-08
v -0.2 0 -0.1
v -0.2 0 -0.2
v -0.2 0.2 0.1
v -0.2 0.2 -5.96046e-08
v -0.2 0.2 -0.1
v -0.2 0.3 0.1
v -0.2 0.3 -5.96046e-08
v -0.2 0.3 -0.1
v -0.2 0.3 -0.3
v -0.2 0.3 -0.4
v -0.2 0.4 0.1
v -0.2 0.4 -5.96046e-08
v -0.2 0.4 -0.1
v -0.2 0.4 -0.2
v -0.2 0.4 -0.3
v -0.2 0.4 -0.4
v -0.2 0.6 0.2
v -0.2 0.6 0.1
v -0.2 0.6 -0.2
v -0.2 0.6 -0.3
v -0.2 0.7 0.3
v -0.2 0.7 0.2
v -0.2 0.7 0.1
v -0.2 0.7 -0.2
v -0.2 0.7 -0.3
v -0.2 0.7 -0.4
v -0.2 0.8 0.4
v -0.2 0.8 0.3
v -0.2 0.8 0.2
v -0.2 0.8 -0.3
v -0.2 0.8 -0.4
v -0.2 0.8 -0.5
v -0.2 1 0.4
v -0.2 1 0.3
v -0.2 1.1 0.4
v -0.2 1.1 0.3
v -0.2 1.1 -0.4
v -0.2 1.1 -0.5
v -0.2 1.2 0.4
v -0.2 1.2 0.3
v -0.2 1.3 0.1
v -0.2 1.3 -0.2
v -0.2 1.4 0.1
v -0.2 1.4 -0.2
v -0.1 0.6 -0.3
v -0.1 0.6 -0.4
v -0.1 0.7 -0.3
v -0.1 0.7 -0.4
v 0.1 0 0.1
v 0.1 0 -5.96046e-08
v 0.1 0 -0.1
v 0.1 0 -0.2
v 0.1 0.2 0.1
v 0.1 0.2 -5.96046e-08
v 0.1 0.2 -0.1
v 0.1 0.3 -5.96046e-08
v 0.1 0.3 -0.1
v 0.1 0.3 -0.2
v 0.1 0.3 -0.3
v 0.1 0.3 -0.4
v 0.1 0.4 -0.3
v 0.1 0.6 0.2
v 0.1 0.6 0.1
v 0.1 0.6 -0.3
v 0.1 0.6 -0.4
v 0.1 0.7 0.2
v 0.1 0.7 0.1
v 0.3 0.3 -5.96046e-08
v 0.3 0.3 -0.1
v 0.3 0.4 -5.96046e-08
v 0.3 0.4 -0.1
v 0.4 0.4 -5.96046e-08
v 0.4 0.4 -0.1
v 0.4 0.5 -5.96046e-08
v 0.4 0.5 -0.1
v -0.4 0.4 0.4
v -0.4 0.4 0.3
v -0.4 0.5 0.6
v -0.4 0.5 0.5
v -0.4 0.5 0.4
v -0.4 0.5 0.3
v -0.4 0.5 -5.96046e-08
v -0.4 0.6 0.8
v -0.4 0.6 0.7
v -0.4 0.6 0.6
v -0.4 0.6 0.5
v -0.4 0.6 0.4
v -0.4 0.6 0.3
v -0.4 0.6 -5.96046e-08
v -0.4 0.7 0.8
v -0.4 0.7 0.7
v -0.4 0.7 0.6
v -0.4 0.7 0.5
v -0.4 0.7 0.4
v -0.4 0.7 0.3
v -0.4 0.8 0.6
v -0.4 0.8 0.5
v -0.4 0.8 0.4
v -0.3 0.6 0.6
v -0.3 0.6 0.5
v -0.3 0.6 0.4
v -0.3 0.7 0.6
v -0.3 0.7 0.5
v -0.3 0.7 0.4
v -0.1 0 0.1
v -0.1 0 -5.96046e-08
v -0.1 0 -0.1
v -0.1 0 -0.2
v -0.1 0.2 0.1
v -0.1 0.2 -5.96046e-08
v -0.1 0.2 -0.1
v -0.1 0.3 -5.96046e-08
v -0.1 0.3 -0.1
v -0.1 0.3 -0.2
v -0.1 0.3 -0.3
v -0.1 0.3 -0.4
v -0.1 0.4 -0.3
v -0.1 0.6 0.2
v -0.1 0.6 0.1
v -0.1 0.6 -0.3
v -0.1 0.6 -0.4
v -0.1 0.7 0.2
v -0.1 0.7 0.1
v 0.1 0.6 -0.3
v 0.1 0.6 -0.4
v 0.1 0.7 -0.3
v 0.1 0.7 -0.4
v 0.2 0 0.1
v 0.2 0 -5.96046e-08
v 0.2 0 -0.1
v 0.2 0 -0.2
v 0.2 0.2 0.1
v 0.2 0.2 -5.96046e-08
v 0.2 0.2 -0.1
v 0.2 0.3 0.1
v 0.2 0.3 -5.96046e-08
v 0.2 0.3 -0.1
v 0.2 0.3 -0.3
v 0.2 0.3 -0.4
v 0.2 0.4 0.1
v 0.2 0.4 -5.96046e-08
v 0.2 0.4 -0.1
v 0.2 0.4 -0.2
v 0.2 0.4 -0.3
v 0.2 0.4 -0.4
v 0.2 0.6 0.2
v 0.2 0.6 0.1
v 0.2 0.6 -0.2
v 0.2 0.6 -0.3
v 0.2 0.7 0.3
v 0.2 0.7 0.2
v 0.2 0.7 0.1
v 0.2 0.7 -0.2
v 0.2 0.7 -0.3
v 0.2 0.7 -0.4
v 0.2 0.8 0.4
v 0.2 0.8 0.3
v 0.2 0.8 0.2
v 0.2 0.8 -0.3
v 0.2 0.8 -0.4
v 0.2 0.8 -0.5
v 0.2 1 0.4
v 0.2 1 0.3
v 0.2 1.1 0.4
v 0.2 1.1 0.3
v 0.2 1.1 -0.4
v 0.2 1.1 -0.5
v 0.2 1.2 0.4
v 0.2 1.2 0.3
v 0.2 1.3 0.1
v 0.2 1.3 -0.2
v 0.2 1.4 0.1
v 0.2 1.4 -0.2
v 0.3 0.4 0.1
v 0.3 0.4 -5.96046e-08
v 0.3 0.4 -0.1
v 0.3 0.4 -0.2
v 0.3 0.4 -0.3
v 0.3 0.4 -0.4
v 0.3 0.5 0.1
v 0.3 0.5 -5.96046e-08
v 0.3 0.5 -0.1
v 0.3 0.6 -5.96046e-08
v 0.3 0.6 -0.1
v 0.3 0.6 -0.2
v 0.3 0.6 -0.3
v 0.3 0.6 -0.4
v 0.3 0.7 0.2
v 0.3 0.7 0.1
v 0.3 0.7 -5.96046e-08
v 0.3 0.7 -0.1
v 0.3 0.7 -0.2
v 0.3 0.7 -0.3
v 0.3 0.8 0.3
v 0.3 0.8 0.2
v 0.3 0.8 0.1
v 0.3 0.8 -0.2
v 0.3 0.8 -0.3
v 0.3 0.8 -0.4
v 0.3 1.2 0.3
v 0.3 1.2 0.2
v 0.3 1.2 -0.3
v 0.3 1.2 -0.4
v 0.3 1.3 0.2
v 0.3 1.3 -0.3
v 0.4 0.6 -5.96046e-08
v 0.4 0.6 -0.1
v 0.4 0.7 0.1
v 0.4 0.7 -5.96046e-08
v 0.4 0.7 -0.1
v 0.4 0.7 -0.2
v 0.4 0.8 0.2
v 0.4 0.8 0.1
v 0.4 0.8 -0.2
v 0.4 0.8 -0.3
v 0.4 1.2 0.2
v 0.4 1.2 -0.3
v 0.5 0.3 -5.96046e-08
v 0.5 0.3 -0.1
v 0.5 0.4 -5.96046e-08
v 0.5 0.4 -0.1
v 0.5 0.5 -5.96046e-08
v 0.5 0.5 -0.1
v 0.5 0.6 -5.96046e-08
v 0.5 0.6 -0.1
v -0.5 0.6 0.8
v -0.5 0.7 0.8
v -0.4 0.6 0.8
v -0.4 0.7 0.8
v -0.6 0.6 0.6
v -0.6 0.7 0.6
v -0.5 0.5 0.6
v -0.5 0.6 0.6
v -0.5 0.7 0.6
v -0.5 0.8 0.6
v -0.4 0.5 0.6
v -0.4 0.6 0.6
v -0.4 0.7 0.6
v -0.4 0.8 0.6
v -0.3 0.6 0.6
v -0.3 0.7 0.6
v -0.5 0.4 0.4
v -0.5 0.5 0.4
v -0.4 0.4 0.4
v -0.4 0.5 0.4
v -0.2 0.8 0.4
v -0.2 1 0.4
v -0.2 1.1 0.4
v -0.2 1.2 0.4
v -0.1 0.9 0.4
v -0.1 1 0.4
v -0.1 1.1 0.4
v 0.1 0.9 0.4
v 0.1 1 0.4
v 0.1 1.1 0.4
v 0.2 0.8 0.4
v 0.2 1 0.4
v 0.2 1.1 0.4
v 0.2 1.2 0.4
v -0.3 0.8 0.3
v -0.3 1.2 0.3
v -0.2 0.7 0.3
v -0.2 0.8 0.3
v -0.2 1 0.3
v -0.2 1.1 0.3
v -0.2 1.2 0.3
v 0.2 0.7 0.3
v 0.2 0.8 0.3
v 0.2 1 0.3
v 0.2 1.1 0.3
v 0.2 1.2 0.3
v 0.3 0.8 0.3
v 0.3 1.2 0.3
v -0.4 0.8 0.2
v -0.4 1.2 0.2
v -0.3 0.7 0.2
v -0.3 0.8 0.2
v -0.3 1.2 0.2
v -0.3 1.3 0.2
v -0.2 0.6 0.2
v -0.2 0.7 0.2
v -0.2 0.8 0.2
v -0.2 1.2 0.2
v -0.2 1.3 0.2
v -0.1 0.6 0.2
v -0.1 0.7 0.2
v 0.1 0.6 0.2
v 0.1 0.7 0.2
v 0.2 0.6 0.2
v 0.2 0.7 0.2
v 0.2 0.8 0.2
v 0.2 1.2 0.2
v 0.2 1.3 0.2
v 0.3 0.7 0.2
v 0.3 0.8 0.2
v 0.3 1.2 0.2
v 0.3 1.3 0.2
v 0.4 0.8 0.2
v 0.4 1.2 0.2
v -0.4 0.7 0.1
v -0.4 0.8 0.1
v -0.3 0.4 0.1
v -0.3 0.5 0.1
v -0.3 0.7 0.1
v -0.3 0.8 0.1
v -0.2 0 0.1
v -0.2 0.2 0.1
v -0.2 0.3 0.1
v -0.2 0.4 0.1
v -0.2 0.5 0.1
v -0.2 0.6 0.1
v -0.2 0.7 0.1
v -0.2 1.3 0.1
v -0.2 1.4 0.1
v -0.1 0 0.1
v -0.1 0.2 0.1
v -0.1 0.6 0.1
v -0.1 0.7 0.1
v 0.1 0 0.1
v 0.1 0.2 0.1
v 0.1 0.6 0.1
v 0.1 0.7 0.1
v 0.2 0 0.1
v 0.2 0.2 0.1
v 0.2 0.3 0.1
v 0.2 0.4 0.1
v 0.2 0.5 0.1
v 0.2 0.6 0.1
v 0.2 0.7 0.1
v 0.2 1.3 0.1
v 0.2 1.4 0.1
v 0.3 0.4 0.1
v 0.3 0.5 0.1
v 0.3 0.7 0.1
v 0.3 0.8 0.1
v 0.4 0.7 0.1
v 0.4 0.8 0.1
v -0.4 0.5 -5.96046e-08
v -0.4 0.6 -5.96046e-08
v -0.3 0.5 -5.96046e-08
v -0.3 0.6 -5.96046e-08
v -0.2 0.2 -5.96046e-08
v -0.2 0.3 -5.96046e-08
v -0.1 0.2 -5.96046e-08
v -0.1 0.3 -5.96046e-08
v 0.1 0.2 -5.96046e-08
v 0.1 0.3 -5.96046e-08
v 0.2 0.2 -5.96046e-08
v 0.2 0.3 -5.96046e-08
v 0.3 0.3 -5.96046e-08
v 0.3 0.4 -5.96046e-08
v 0.3 0.5 -5.96046e-08
v 0.3 0.6 -5.96046e-08
v 0.3 0.7 -5.96046e-08
v 0.4 0.3 -5.96046e-08
v 0.4 0.4 -5.96046e-08
v 0.4 0.5 -5.96046e-08
v 0.4 0.6 -5.96046e-08
v 0.4 0.7 -5.96046e-08
v 0.5 0.3 -5.96046e-08
v 0.5 0.4 -5.96046e-08
v 0.5 0.5 -5.96046e-08
v 0.5 0.6 -5.96046e-08
v -0.3 0.4 -0.3
v -0.3 0.6 -0.3
v -0.2 0.3 -0.3
v -0.2 0.4 -0.3
v -0.2 0.6 -0.3
v -0.1 0.3 -0.3
v -0.1 0.4 -0.3
v 0.1 0.3 -0.3
v 0.1 0.4 -0.3
v 0.2 0.3 -0.3
v 0.2 0.4 -0.3
v 0.2 0.6 -0.3
v 0.3 0.4 -0.3
v 0.3 0.6 -0.3
v -0.6 0.6 0.4
v -0.6 0.7 0.4
v -0.5 0.6 0.4
v -0.5 0.7 0.4
v -0.5 0.8 0.4
v -0.4 0.6 0.4
v -0.4 0.7 0.4
v -0.4 0.8 0.4
v -0.3 0.6 0.4
v -0.3 0.7 0.4
v -0.5 0.4 0.3
v -0.5 0.5 0.3
v -0.5 0.6 0.3
v -0.5 0.7 0.3
v -0.4 0.4 0.3
v -0.4 0.5 0.3
v -0.4 0.6 0.3
v -0.4 0.7 0.3
v -0.5 0.5 -0.1
v -0.5 0.6 -0.1
v -0.3 0.5 -0.1
v -0.3 0.6 -0.1
v 0.3 0.3 -0.1
v 0.3 0.4 -0.1
v 0.3 0.5 -0.1
v 0.3 0.6 -0.1
v 0.3 0.7 -0.1
v 0.4 0.3 -0.1
v 0.4 0.4 -0.1
v 0.4 0.5 -0.1
v 0.4 0.6 -0.1
v 0.4 0.7 -0.1
v 0.5 0.3 -0.1
v 0.5 0.4 -0.1
v 0.5 0.5 -0.1
v 0.5 0.6 -0.1
v -0.4 0.7 -0.2
v -0.4 0.8 -0.2
v -0.3 0.4 -0.2
v -0.3 0.6 -0.2
v -0.3 0.7 -0.2
v -0.3 0.8 -0.2
v -0.2 0 -0.2
v -0.2 0.4 -0.2
v -0.2 0.6 -0.2
v -0.2 0.7 -0.2
v -0.2 1.3 -0.2
v -0.2 1.4 -0.2
v -0.1 0 -0.2
v -0.1 0.3 -0.2
v 0.1 0 -0.2
v 0.1 0.3 -0.2
v 0.2 0 -0.2
v 0.2 0.4 -0.2
v 0.2 0.6 -0.2
v 0.2 0.7 -0.2
v 0.2 1.3 -0.2
v 0.2 1.4 -0.2
v 0.3 0.4 -0.2
v 0.3 0.6 -0.2
v 0.3 0.7 -0.2
v 0.3 0.8 -0.2
v 0.4 0.7 -0.2
v 0.4 0.8 -0.2
v -0.4 0.8 -0.3
v -0.4 1.2 -0.3
v -0.3 0.7 -0.3
v -0.3 0.8 -0.3
v -0.3 1.2 -0.3
v -0.3 1.3 -0.3
v -0.2 0.6 -0.3
v -0.2 0.7 -0.3
v -0.2 0.8 -0.3
v -0.1 0.4 -0.3
v -0.1 0.6 -0.3
v -0.1 0.7 -0.3
v 0.1 0.4 -0.3
v 0.1 0.6 -0.3
v 0.1 0.7 -0.3
v 0.2 0.6 -0.3
v 0.2 0.7 -0.3
v 0.2 0.8 -0.3
v 0.3 0.7 -0.3
v 0.3 0.8 -0.3
v 0.3 1.2 -0.3
v 0.3 1.3 -0.3
v 0.4 0.8 -0.3
v 0.4 1.2 -0.3
v -0.3 0.4 -0.4
v -0.3 0.6 -0.4
v -0.3 0.8 -0.4
v -0.3 1.2 -0.4
v -0.2 0.3 -0.4
v -0.2 0.4 -0.4
v -0.2 0.7 -0.4
v -0.2 0.8 -0.4
v -0.2 1.1 -0.4
v -0.1 0.3 -0.4
v -0.1 0.6 -0.4
v -0.1 0.7 -0.4
v 0.1 0.3 -0.4
v 0.1 0.6 -0.4
v 0.1 0.7 -0.4
v 0.2 0.3 -0.4
v 0.2 0.4 -0.4
v 0.2 0.7 -0.4
v 0.2 0.8 -0.4
v 0.2 1.1 -0.4
v 0.3 0.4 -0.4
v 0.3 0.6 -0.4
v 0.3 0.8 -0.4
v 0.3 1.2 -0.4
v -0.2 0.8 -0.5
v -0.2 1.1 -0.5
v 0.2 0.8 -0.5
v 0.2 1.1 -0.5
v -0.2 0 0.1
v -0.1 0 0.1
v 0.1 0 0.1
v 0.2 0 0.1
v -0.2 0 -5.96046e-08
v -0.1 0 -5.96046e-08
v 0.1 0 -5.96046e-08
v 0.2 0 -5.96046e-08
v -0.2 0 -0.1
v -0.1 0 -0.1
v 0.1 0 -0.1
v 0.2 0 -0.1
v -0.2 0 -0.2
v -0.1 0 -0.2
v 0.1 0 -0.2
v 0.2 0 -0.2
v -0.2 0.3 0.1
v 0.2 0.3 0.1
v -0.2 0.3 -5.96046e-08
v -0.1 0.3 -5.96046e-08
v 0.1 0.3 -5.96046e-08
v 0.2 0.3 -5.96046e-08
v 0.3 0.3 -5.96046e-08
v 0.4 0.3 -5.96046e-08
v 0.5 0.3 -5.96046e-08
v -0.1 0.3 -0.1
v 0.1 0.3 -0.1
v 0.3 0.3 -0.1
v 0.4 0.3 -0.1
v 0.5 0.3 -0.1
v -0.1 0.3 -0.2
v 0.1 0.3 -0.2
v -0.2 0.3 -0.3
v -0.1 0.3 -0.3
v 0.1 0.3 -0.3
v 0.2 0.3 -0.3
v -0.2 0.3 -0.4
v -0.1 0.3 -0.4
v 0.1 0.3 -0.4
v 0.2 0.3 -0.4
v -0.5 0.4 0.4
v -0.4 0.4 0.4
v -0.5 0.4 0.3
v -0.4 0.4 0.3
v -0.3 0.4 0.1
v -0.2 0.4 0.1
v 0.2 0.4 0.1
v 0.3 0.4 0.1
v -0.2 0.4 -5.96046e-08
v 0.2 0.4 -5.96046e-08
v 0.3 0.4 -5.96046e-08
v -0.2 0.4 -0.1
v 0.2 0.4 -0.1
v 0.3 0.4 -0.1
v -0.3 0.4 -0.2
v -0.2 0.4 -0.2
v 0.2 0.4 -0.2
v 0.3 0.4 -0.2
v -0.3 0.4 -0.3
v -0.2 0.4 -0.3
v -0.1 0.4 -0.3
v 0.1 0.4 -0.3
v 0.2 0.4 -0.3
v 0.3 0.4 -0.3
v -0.3 0.4 -0.4
v -0.2 0.4 -0.4
v 0.2 0.4 -0.4
v 0.3 0.4 -0.4
v -0.5 0.5 0.6
v -0.4 0.5 0.6
v -0.5 0.5 0.5
v -0.4 0.5 0.5
v -0.5 0.5 0.4
v -0.4 0.5 0.4
v -0.5 0.5 0.3
v -0.4 0.5 0.3
v -0.4 0.5 -5.96046e-08
v -0.3 0.5 -5.96046e-08
v 0.3 0.5 -5.96046e-08
v 0.4 0.5 -5.96046e-08
v -0.5 0.5 -0.1
v -0.3 0.5 -0.1
v 0.3 0.5 -0.1
v 0.4 0.5 -0.1
v -0.5 0.6 0.8
v -0.4 0.6 0.8
v -0.5 0.6 0.7
v -0.4 0.6 0.7
v -0.6 0.6 0.6
v -0.5 0.6 0.6
v -0.4 0.6 0.6
v -0.3 0.6 0.6
v -0.6 0.6 0.5
v -0.5 0.6 0.5
v -0.4 0.6 0.5
v -0.3 0.6 0.5
v -0.6 0.6 0.4
v -0.5 0.6 0.4
v -0.4 0.6 0.4
v -0.3 0.6 0.4
v -0.2 0.6 0.2
v -0.1 0.6 0.2
v 0.1 0.6 0.2
v 0.2 0.6 0.2
v -0.2 0.6 0.1
v -0.1 0.6 0.1
v 0.1 0.6 0.1
v 0.2 0.6 0.1
v -0.1 0.6 -0.3
v 0.1 0.6 -0.3
v -0.1 0.6 -0.4
v 0.1 0.6 -0.4
v -0.2 0.7 0.3
v 0.2 0.7 0.3
v -0.3 0.7 0.2
v -0.2 0.7 0.2
v -0.1 0.7 0.2
v 0.1 0.7 0.2
v 0.2 0.7 0.2
v 0.3 0.7 0.2
v -0.4 0.7 0.1
v -0.3 0.7 0.1
v -0.2 0.7 0.1
v -0.1 0.7 0.1
v 0.1 0.7 0.1
v 0.2 0.7 0.1
v 0.3 0.7 0.1
v 0.4 0.7 0.1
v -0.3 0.7 -5.96046e-08
v 0.3 0.7 -5.96046e-08
v 0.4 0.7 -5.96046e-08
v -0.3 0.7 -0.1
v 0.3 0.7 -0.1
v 0.4 0.7 -0.1
v -0.4 0.7 -0.2
v -0.3 0.7 -0.2
v -0.2 0.7 -0.2
v 0.2 0.7 -0.2
v 0.3 0.7 -0.2
v 0.4 0.7 -0.2
v -0.3 0.7 -0.3
v -0.2 0.7 -0.3
v -0.1 0.7 -0.3
v 0.1 0.7 -0.3
v 0.2 0.7 -0.3
v 0.3 0.7 -0.3
v -0.2 0.7 -0.4
v -0.1 0.7 -0.4
v 0.1 0.7 -0.4
v 0.2 0.7 -0.4
v -0.2 0.8 0.4
v 0.2 0.8 0.4
v -0.3 0.8 0.3
v -0.2 0.8 0.3
v 0.2 0.8 0.3
v 0.3 0.8 0.3
v -0.4 0.8 0.2
v -0.3 0.8 0.2
v -0.2 0.8 0.2
v 0.2 0.8 0.2
v 0.3 0.8 0.2
v 0.4 0.8 0.2
v -0.4 0.8 0.1
v -0.3 0.8 0.1
v 0.3 0.8 0.1
v 0.4 0.8 0.1
v -0.4 0.8 -0.2
v -0.3 0.8 -0.2
v 0.3 0.8 -0.2
v 0.4 0.8 -0.2
v -0.4 0.8 -0.3
v -0.3 0.8 -0.3
v -0.2 0.8 -0.3
v 0.2 0.8 -0.3
v 0.3 0.8 -0.3
v 0.4 0.8 -0.3
v -0.3 0.8 -0.4
v -0.2 0.8 -0.4
v 0.2 0.8 -0.4
v 0.3 0.8 -0.4
v -0.2 0.8 -0.5
v 0.2 0.8 -0.5
v -0.2 0.2 0.1
v -0.1 0.2 0.1
v 0.1 0.2 0.1
v 0.2 0.2 0.1
v -0.2 0.2 -5.96046e-08
v -0.1 0.2 -5.96046e-08
v 0.1 0.2 -5.96046e-08
v 0.2 0.2 -5.96046e-08
v 0.3 0.4 -5.96046e-08
v 0.4 0.4 -5.96046e-08
v 0.3 0.4 -0.1
v 0.4 0.4 -0.1
v -0.5 0.6 0.3
v -0.4 0.6 0.3
v -0.4 0.6 -5.96046e-08
v -0.3 0.6 -5.96046e-08
v 0.4 0.6 -5.96046e-08
v 0.5 0.6 -5.96046e-08
v -0.5 0.6 -0.1
v -0.3 0.6 -0.1
v 0.4 0.6 -0.1
v 0.5 0.6 -0.1
v -0.3 0.6 -0.3
v -0.2 0.6 -0.3
v -0.1 0.6 -0.3
v 0.1 0.6 -0.3
v 0.2 0.6 -0.3
v 0.3 0.6 -0.3
v -0.3 0.6 -0.4
v -0.1 0.6 -0.4
v 0.1 0.6 -0.4
v 0.3 0.6 -0.4
v -0.5 0.7 0.8
v -0.4 0.7 0.8
v -0.5 0.7 0.7
v -0.4 0.7 0.7
v -0.6 0.7 0.6
v -0.5 0.7 0.6
v -0.4 0.7 0.6
v -0.3 0.7 0.6
v -0.6 0.7 0.5
v -0.5 0.7 0.5
v -0.4 0.7 0.5
v -0.3 0.7 0.5
v -0.6 0.7 0.4
v -0.5 0.7 0.4
v -0.4 0.7 0.4
v -0.3 0.7 0.4
v -0.5 0.7 0.3
v -0.4 0.7 0.3
v -0.5 0.8 0.6
v -0.4 0.8 0.6
v -0.5 0.8 0.5
v -0.4 0.8 0.5
v -0.5 0.8 0.4
v -0.4 0.8 0.4
v -0.2 1.1 -0.4
v 0.2 1.1 -0.4
v -0.2 1.1 -0.5
v 0.2 1.1 -0.5
v -0.2 1.2 0.4
v 0.2 1.2 0.4
v -0.3 1.2 0.3
v -0.2 1.2 0.3
v 0.2 1.2 0.3
v 0.3 1.2 0.3
v -0.4 1.2 0.2
v -0.3 1.2 0.2
v -0.2 1.2 0.2
v 0.2 1.2 0.2
v 0.3 1.2 0.2
v 0.4 1.2 0.2
v -0.4 1.2 -0.3
v -0.3 1.2 -0.3
v 0.3 1.2 -0.3
v 0.4 1.2 -0.3
v -0.3 1.2 -0.4
v 0.3 1.2 -0.4
v -0.3 1.3 0.2
v -0.2 1.3 0.2
v 0.2 1.3 0.2
v 0.3 1.3 0.2
v -0.2 1.3 0.1
v 0.2 1.3 0.1
v -0.2 1.3 -0.2
v 0.2 1.3 -0.2
v -0.3 1.3 -0.3
v 0.3 1.3 -0.3
v -0.2 1.4 0.1
v 0.2 1.4 0.1
v -0.2 1.4 -0.2
v 0.2 1.4 -0.2

# faces
f 4/2/1 2/2/1 1/2/1
f 5/4/1 3/4/1 2/4/1
f 5/2/1 2/2/1 4/2/1
f 6/4/1 3/4/1 5/4/1
f 11/3/1 8/3/1 7/3/1
f 12/3/1 8/3/1 11/3/1
f 16/2/1 10/2/1 9/2/1
f 17/4/1 11/4/1 10/4/1
f 17/2/1 10/2/1 16/2/1
f 18/3/1 12/3/1 11/3/1
f 18/4/1 11/4/1 17/4/1
f 19/9/1 13/9/1 12/9/1
f 19/3/1 12/3/1 18/3/1
f 20/9/1 13/9/1 19/9/1
f 21/4/1 15/4/1 14/4/1
f 22/3/1 16/3/1 15/3/1
f 22/4/1 15/4/1 21/4/1
f 23/3/1 16/3/1 22/3/1
f 25/3/1 19/3/1 18/3/1
f 26/3/1 19/3/1 25/3/1
f 27/2/1 24/2/1 23/2/1
f 28/4/1 25/4/1 24/4/1
f 28/2/1 24/2/1 27/2/1
f 29/4/1 25/4/1 28/4/1
f 33/9/1 31/9/1 30/9/1
f 34/9/1 31/9/1 33/9/1
f 36/9/1 33/9/1 32/9/1
f 36/9/1 35/9/1 34/9/1
f 36/9/1 34/9/1 33/9/1
f 37/9/1 35/9/1 36/9/1
f 42/7/1 39/7/1 38/7/1
f 43/7/1 39/7/1 42/7/1
f 44/7/1 39/7/1 43/7/1
f 45/9/1 43/9/1 42/9/1
f 46/7/1 39/7/1 44/7/1
f 47/7/1 39/7/1 46/7/1
f 48/12/1 41/12/1 40/12/1
f 49/12/1 41/12/1 48/12/1
f 51/9/1 45/9/1 42/9/1
f 52/7/1 46/7/1 45/7/1
f 52/9/1 45/9/1 51/9/1
f 53/9/1 47/9/1 46/9/1
f 53/7/1 46/7/1 52/7/1
f 54/9/1 47/9/1 53/9/1
f 57/9/1 51/9/1 50/9/1
f 58/9/1 51/9/1 57/9/1
f 59/9/1 55/9/1 54/9/1
f 60/9/1 55/9/1 59/9/1
f 62/14/1 57/14/1 56/14/1
f 63/14/1 57/14/1 62/14/1
f 64/9/1 61/9/1 60/9/1
f 65/9/1 61/9/1 64/9/1
f 66/9/1 64/9/1 63/9/1
f 67/9/1 64/9/1 66/9/1
f 72/16/1 69/16/1 68/16/1
f 73/11/1 70/11/1 69/11/1
f 73/16/1 69/16/1 72/16/1
f 74/7/1 71/7/1 70/7/1
f 74/11/1 70/11/1 73/11/1
f 76/5/1 74/5/1 73/5/1
f 77/7/1 71/7/1 74/7/1
f 77/5/1 74/5/1 76/5/1
f 80/7/1 76/7/1 75/7/1
f 81/9/1 77/9/1 76/9/1
f 81/7/1 76/7/1 80/7/1
f 82/7/1 71/7/1 77/7/1
f 82/9/1 77/9/1 81/9/1
f 83/7/1 71/7/1 82/7/1
f 84/12/1 79/12/1 78/12/1
f 85/12/1 79/12/1 84/12/1
f 88/13/1 84/13/1 83/13/1
f 89/13/1 84/13/1 88/13/1
f 91/9/1 87/9/1 86/9/1
f 92/9/1 87/9/1 91/9/1
f 93/9/1 89/9/1 88/9/1
f 94/9/1 89/9/1 93/9/1
f 97/14/1 91/14/1 90/14/1
f 98/14/1 91/14/1 97/14/1
f 99/9/1 95/9/1 94/9/1
f 100/9/1 95/9/1 99/9/1
f 102/14/1 97/14/1 96/14/1
f 103/14/1 97/14/1 102/14/1
f 104/1/1 103/1/1 102/1/1
f 105/1/1 103/1/1 104/1/1
f 106/9/1 101/9/1 100/9/1
f 107/9/1 101/9/1 106/9/1
f 108/14/1 105/14/1 104/14/1
f 109/14/1 105/14/1 108/14/1
f 112/9/1 111/9/1 110/9/1
f 113/9/1 111/9/1 112/9/1
f 116/9/1 115/9/1 114/9/1
f 117/9/1 115/9/1 116/9/1
f 122/16/1 119/16/1 118/16/1
f 123/11/1 120/11/1 119/11/1
f 123/16/1 119/16/1 122/16/1
f 124/7/1 121/7/1 120/7/1
f 124/11/1 120/11/1 123/11/1
f 125/5/1 124/5/1 123/5/1
f 126/7/1 121/7/1 124/7/1
f 126/5/1 124/5/1 125/5/1
f 127/7/1 121/7/1 126/7/1
f 130/12/1 129/12/1 128/12/1
f 133/12/1 129/12/1 130/12/1
f 134/12/1 129/12/1 133/12/1
f 135/9/1 132/9/1 131/9/1
f 136/9/1 132/9/1 135/9/1
f 139/5/1 138/5/1 137/5/1
f 140/5/1 138/5/1 139/5/1
f 143/5/1 142/5/1 141/5/1
f 144/5/1 142/5/1 143/5/1
f 145/3/2 146/3/2 149/3/2
f 149/3/2 146/3/2 150/3/2
f 147/2/2 148/2/2 154/2/2
f 148/4/2 149/4/2 155/4/2
f 154/2/2 148/2/2 155/2/2
f 149/3/2 150/3/2 156/3/2
f 155/4/2 149/4/2 156/4/2
f 150/9/2 151/9/2 157/9/2
f 156/3/2 150/3/2 157/3/2
f 157/9/2 151/9/2 158/9/2
f 152/4/2 153/4/2 159/4/2
f 153/3/2 154/3/2 160/3/2
f 159/4/2 153/4/2 160/4/2
f 160/3/2 154/3/2 161/3/2
f 156/3/2 157/3/2 163/3/2
f 163/3/2 157/3/2 164/3/2
f 161/2/2 162/2/2 165/2/2
f 162/4/2 163/4/2 166/4/2
f 165/2/2 162/2/2 166/2/2
f 166/4/2 163/4/2 167/4/2
f 168/2/2 169/2/2 171/2/2
f 169/4/2 170/4/2 172/4/2
f 171/2/2 169/2/2 172/2/2
f 172/4/2 170/4/2 173/4/2
f 174/16/2 175/16/2 178/16/2
f 175/11/2 176/11/2 179/11/2
f 178/16/2 175/16/2 179/16/2
f 176/7/2 177/7/2 180/7/2
f 179/11/2 176/11/2 180/11/2
f 179/5/2 180/5/2 181/5/2
f 180/7/2 177/7/2 182/7/2
f 181/5/2 180/5/2 182/5/2
f 182/7/2 177/7/2 183/7/2
f 184/12/2 185/12/2 186/12/2
f 186/12/2 185/12/2 189/12/2
f 189/12/2 185/12/2 190/12/2
f 187/9/2 188/9/2 191/9/2
f 191/9/2 188/9/2 192/9/2
f 193/9/2 194/9/2 195/9/2
f 195/9/2 194/9/2 196/9/2
f 197/16/2 198/16/2 201/16/2
f 198/11/2 199/11/2 202/11/2
f 201/16/2 198/16/2 202/16/2
f 199/7/2 200/7/2 203/7/2
f 202/11/2 199/11/2 203/11/2
f 202/5/2 203/5/2 205/5/2
f 203/7/2 200/7/2 206/7/2
f 205/5/2 203/5/2 206/5/2
f 204/7/2 205/7/2 209/7/2
f 205/9/2 206/9/2 210/9/2
f 209/7/2 205/7/2 210/7/2
f 206/7/2 200/7/2 211/7/2
f 210/9/2 206/9/2 211/9/2
f 211/7/2 200/7/2 212/7/2
f 207/12/2 208/12/2 213/12/2
f 213/12/2 208/12/2 214/12/2
f 212/13/2 213/13/2 217/13/2
f 217/13/2 213/13/2 218/13/2
f 215/9/2 216/9/2 220/9/2
f 220/9/2 216/9/2 221/9/2
f 217/8/2 218/8/2 222/8/2
f 222/8/2 218/8/2 223/8/2
f 219/14/2 220/14/2 226/14/2
f 226/14/2 220/14/2 227/14/2
f 223/9/2 224/9/2 228/9/2
f 228/9/2 224/9/2 229/9/2
f 225/14/2 226/14/2 231/14/2
f 231/14/2 226/14/2 232/14/2
f 231/1/2 232/1/2 233/1/2
f 233/1/2 232/1/2 234/1/2
f 229/9/2 230/9/2 235/9/2
f 235/9/2 230/9/2 236/9/2
f 233/14/2 234/14/2 237/14/2
f 237/14/2 234/14/2 238/14/2
f 239/9/2 240/9/2 241/9/2
f 241/9/2 240/9/2 242/9/2
f 243/7/2 244/7/2 249/7/2
f 244/7/2 245/7/2 249/7/2
f 245/7/2 246/7/2 249/7/2
f 249/7/2 246/7/2 250/7/2
f 250/7/2 246/7/2 251/7/2
f 249/9/2 250/9/2 252/9/2
f 251/7/2 246/7/2 253/7/2
f 253/7/2 246/7/2 254/7/2
f 247/12/2 248/12/2 255/12/2
f 255/12/2 248/12/2 256/12/2
f 249/9/2 252/9/2 258/9/2
f 258/9/2 252/9/2 259/9/2
f 253/9/2 254/9/2 260/9/2
f 260/9/2 254/9/2 261/9/2
f 257/9/2 258/9/2 264/9/2
f 264/9/2 258/9/2 265/9/2
f 261/9/2 262/9/2 266/9/2
f 266/9/2 262/9/2 267/9/2
f 263/14/2 264/14/2 269/14/2
f 269/14/2 264/14/2 270/14/2
f 267/9/2 268/9/2 271/9/2
f 271/9/2 268/9/2 272/9/2
f 270/9/2 271/9/2 273/9/2
f 273/9/2 271/9/2 274/9/2
f 275/7/2 276/7/2 278/7/2
f 278/7/2 276/7/2 279/7/2
f 277/9/2 278/9/2 282/9/2
f 279/9/2 280/9/2 282/9/2
f 278/9/2 279/9/2 282/9/2
f 282/9/2 280/9/2 283/9/2
f 281/9/2 282/9/2 285/9/2
f 283/9/2 284/9/2 285/9/2
f 282/9/2 283/9/2 285/9/2
f 285/9/2 284/9/2 286/9/2
f 287/7/2 288/7/2 289/7/2
f 289/7/2 288/7/2 290/7/2
f 289/5/2 290/5/2 291/5/2
f 291/5/2 290/5/2 292/5/2
f 291/7/2 292/7/2 293/7/2
f 293/7/2 292/7/2 294/7/2
f 297/4/3 296/4/3 295/4/3
f 298/4/3 296/4/3 297/4/3
f 302/2/3 300/2/3 299/2/3
f 303/2/3 300/2/3 302/2/3
f 305/2/3 302/2/3 301/2/3
f 306/2/3 302/2/3 305/2/3
f 307/2/3 304/2/3 303/2/3
f 308/2/3 304/2/3 307/2/3
f 309/2/3 307/2/3 306/2/3
f 310/2/3 307/2/3 309/2/3
f 313/3/3 312/3/3 311/3/3
f 314/3/3 312/3/3 313/3/3
f 319/14/3 316/14/3 315/14/3
f 320/1/3 317/1/3 316/1/3
f 320/14/3 316/14/3 319/14/3
f 321/14/3 318/14/3 317/14/3
f 321/1/3 317/1/3 320/1/3
f 322/1/3 320/1/3 319/1/3
f 322/14/3 319/14/3 315/14/3
f 323/14/3 321/14/3 320/14/3
f 323/1/3 320/1/3 322/1/3
f 324/14/3 318/14/3 321/14/3
f 324/14/3 321/14/3 323/14/3
f 325/14/3 323/14/3 322/14/3
f 325/14/3 322/14/3 315/14/3
f 326/1/3 324/1/3 323/1/3
f 326/14/3 323/14/3 325/14/3
f 327/14/3 318/14/3 324/14/3
f 327/1/3 324/1/3 326/1/3
f 328/14/3 318/14/3 327/14/3
f 332/14/3 330/14/3 329/14/3
f 333/14/3 330/14/3 332/14/3
f 334/14/3 330/14/3 333/14/3
f 335/14/3 330/14/3 334/14/3
f 336/14/3 332/14/3 331/14/3
f 337/14/3 332/14/3 336/14/3
f 341/14/3 340/14/3 339/14/3
f 341/14/3 339/14/3 338/14/3
f 341/14/3 338/14/3 337/14/3
f 342/14/3 340/14/3 341/14/3
f 346/9/3 344/9/3 343/9/3
f 347/9/3 344/9/3 346/9/3
f 350/9/3 346/9/3 345/9/3
f 351/9/3 346/9/3 350/9/3
f 352/9/3 348/9/3 347/9/3
f 353/9/3 348/9/3 352/9/3
f 354/9/3 350/9/3 349/9/3
f 355/9/3 350/9/3 354/9/3
f 358/9/3 357/9/3 356/9/3
f 359/9/3 357/9/3 358/9/3
f 361/14/3 353/14/3 352/14/3
f 362/14/3 353/14/3 361/14/3
f 363/9/3 360/9/3 359/9/3
f 364/9/3 360/9/3 363/9/3
f 365/9/3 362/9/3 361/9/3
f 366/9/3 362/9/3 365/9/3
f 367/9/3 365/9/3 364/9/3
f 368/9/3 365/9/3 367/9/3
f 373/9/3 370/9/3 369/9/3
f 374/9/3 370/9/3 373/9/3
f 378/7/3 372/7/3 371/7/3
f 379/9/3 373/9/3 372/9/3
f 379/7/3 372/7/3 378/7/3
f 380/9/3 373/9/3 379/9/3
f 381/9/3 373/9/3 380/9/3
f 384/16/3 376/16/3 375/16/3
f 385/16/3 376/16/3 384/16/3
f 386/7/3 378/7/3 377/7/3
f 386/7/3 380/7/3 379/7/3
f 386/7/3 379/7/3 378/7/3
f 390/7/3 387/7/3 386/7/3
f 390/7/3 386/7/3 377/7/3
f 391/7/3 387/7/3 390/7/3
f 392/16/3 389/16/3 388/16/3
f 393/16/3 389/16/3 392/16/3
f 394/7/3 390/7/3 377/7/3
f 395/7/3 390/7/3 394/7/3
f 396/7/3 390/7/3 395/7/3
f 397/7/3 390/7/3 396/7/3
f 399/9/3 383/9/3 382/9/3
f 400/9/3 383/9/3 399/9/3
f 401/7/3 396/7/3 395/7/3
f 402/9/3 398/9/3 397/9/3
f 402/7/3 396/7/3 401/7/3
f 402/9/3 397/9/3 396/9/3
f 403/9/3 398/9/3 402/9/3
f 405/9/3 404/9/3 403/9/3
f 406/9/3 404/9/3 405/9/3
f 409/9/3 408/9/3 407/9/3
f 410/9/3 408/9/3 409/9/3
f 413/5/3 412/5/3 411/5/3
f 414/5/3 412/5/3 413/5/3
f 417/5/3 416/5/3 415/5/3
f 418/5/3 416/5/3 417/5/3
f 424/5/3 420/5/3 419/5/3
f 425/5/3 420/5/3 424/5/3
f 426/5/3 422/5/3 421/5/3
f 427/7/3 423/7/3 422/7/3
f 427/5/3 422/5/3 426/5/3
f 428/7/3 423/7/3 427/7/3
f 429/7/3 425/7/3 424/7/3
f 430/5/3 426/5/3 425/5/3
f 430/7/3 425/7/3 429/7/3
f 431/7/3 427/7/3 426/7/3
f 431/5/3 426/5/3 430/5/3
f 432/7/3 427/7/3 431/7/3
f 436/12/3 434/12/3 433/12/3
f 437/12/3 434/12/3 436/12/3
f 438/12/3 436/12/3 435/12/3
f 439/12/3 436/12/3 438/12/3
f 442/12/3 441/12/3 440/12/3
f 443/12/3 441/12/3 442/12/3
f 445/12/3 444/12/3 443/12/3
f 446/12/3 444/12/3 445/12/3
f 447/4/4 448/4/4 449/4/4
f 449/4/4 448/4/4 450/4/4
f 450/4/4 451/4/4 453/4/4
f 453/4/4 451/4/4 454/4/4
f 452/4/4 453/4/4 455/4/4
f 455/4/4 453/4/4 456/4/4
f 457/3/4 458/3/4 461/3/4
f 461/3/4 458/3/4 462/3/4
f 459/3/4 460/3/4 463/3/4
f 463/3/4 460/3/4 464/3/4
f 465/9/4 466/9/4 467/9/4
f 467/9/4 466/9/4 468/9/4
f 469/5/4 470/5/4 474/5/4
f 474/5/4 470/5/4 475/5/4
f 471/5/4 472/5/4 476/5/4
f 472/7/4 473/7/4 477/7/4
f 476/5/4 472/5/4 477/5/4
f 477/7/4 473/7/4 478/7/4
f 474/7/4 475/7/4 479/7/4
f 475/5/4 476/5/4 480/5/4
f 479/7/4 475/7/4 480/7/4
f 476/7/4 477/7/4 481/7/4
f 480/5/4 476/5/4 481/5/4
f 481/7/4 477/7/4 482/7/4
f 483/9/4 484/9/4 487/9/4
f 487/9/4 484/9/4 488/9/4
f 485/7/4 486/7/4 490/7/4
f 486/9/4 487/9/4 491/9/4
f 490/7/4 486/7/4 491/7/4
f 491/9/4 487/9/4 492/9/4
f 489/7/4 490/7/4 495/7/4
f 495/7/4 490/7/4 496/7/4
f 496/7/4 490/7/4 498/7/4
f 497/7/4 498/7/4 499/7/4
f 498/7/4 490/7/4 500/7/4
f 499/7/4 498/7/4 500/7/4
f 493/9/4 494/9/4 503/9/4
f 503/9/4 494/9/4 504/9/4
f 500/7/4 501/7/4 505/7/4
f 501/9/4 502/9/4 506/9/4
f 505/7/4 501/7/4 506/7/4
f 506/9/4 502/9/4 507/9/4
f 507/9/4 508/9/4 509/9/4
f 509/9/4 508/9/4 510/9/4
f 511/9/4 512/9/4 514/9/4
f 514/9/4 512/9/4 515/9/4
f 513/9/4 514/9/4 518/9/4
f 518/9/4 514/9/4 519/9/4
f 517/9/4 518/9/4 521/9/4
f 521/9/4 518/9/4 522/9/4
f 520/13/4 521/13/4 523/13/4
f 523/13/4 521/13/4 524/13/4
f 524/8/4 525/8/4 526/8/4
f 526/8/4 525/8/4 527/8/4
f 527/9/4 528/9/4 529/9/4
f 529/9/4 528/9/4 530/9/4
f 515/9/4 516/9/4 531/9/4
f 531/9/4 516/9/4 532/9/4
f 530/9/4 531/9/4 533/9/4
f 533/9/4 531/9/4 534/9/4
f 535/12/4 536/12/4 540/12/4
f 537/9/4 538/9/4 542/9/4
f 542/9/4 538/9/4 543/9/4
f 539/12/4 540/12/4 544/12/4
f 540/12/4 536/12/4 545/12/4
f 544/12/4 540/12/4 545/12/4
f 541/9/4 542/9/4 546/9/4
f 545/9/4 546/9/4 548/9/4
f 546/9/4 542/9/4 549/9/4
f 548/9/4 546/9/4 549/9/4
f 547/12/4 548/12/4 550/12/4
f 550/12/4 548/12/4 551/12/4
f 549/9/4 542/9/4 552/9/4
f 552/9/4 542/9/4 553/9/4
f 543/9/4 538/9/4 554/9/4
f 551/12/4 548/12/4 555/12/4
f 555/12/4 548/12/4 556/12/4
f 553/9/4 554/9/4 557/9/4
f 554/9/4 538/9/4 558/9/4
f 557/9/4 554/9/4 558/9/4
f 559/9/4 560/9/4 561/9/4
f 561/9/4 560/9/4 562/9/4
f 567/16/5 564/16/5 563/16/5
f 568/16/5 564/16/5 567/16/5
f 569/16/5 566/16/5 565/16/5
f 570/16/5 566/16/5 569/16/5
f 571/11/5 568/11/5 567/11/5
f 572/11/5 568/11/5 571/11/5
f 573/11/5 570/11/5 569/11/5
f 574/11/5 570/11/5 573/11/5
f 575/7/5 572/7/5 571/7/5
f 576/7/5 572/7/5 575/7/5
f 577/7/5 574/7/5 573/7/5
f 578/7/5 574/7/5 577/7/5
f 581/7/5 580/7/5 579/7/5
f 582/7/5 580/7/5 581/7/5
f 583/7/5 580/7/5 582/7/5
f 584/7/5 580/7/5 583/7/5
f 588/7/5 583/7/5 582/7/5
f 589/7/5 583/7/5 588/7/5
f 590/5/5 586/5/5 585/5/5
f 591/7/5 587/7/5 586/7/5
f 591/5/5 586/5/5 590/5/5
f 592/7/5 587/7/5 591/7/5
f 593/7/5 589/7/5 588/7/5
f 594/7/5 589/7/5 593/7/5
f 599/12/5 596/12/5 595/12/5
f 600/12/5 596/12/5 599/12/5
f 601/12/5 598/12/5 597/12/5
f 602/12/5 598/12/5 601/12/5
f 605/3/5 604/3/5 603/3/5
f 606/3/5 604/3/5 605/3/5
f 611/7/5 608/7/5 607/7/5
f 612/7/5 610/7/5 609/7/5
f 613/7/5 610/7/5 612/7/5
f 614/7/5 611/7/5 607/7/5
f 615/7/5 613/7/5 612/7/5
f 616/7/5 613/7/5 615/7/5
f 617/7/5 614/7/5 607/7/5
f 618/7/5 614/7/5 617/7/5
f 619/7/5 616/7/5 615/7/5
f 620/7/5 616/7/5 619/7/5
f 622/13/5 619/13/5 618/13/5
f 623/13/5 619/13/5 622/13/5
f 624/13/5 619/13/5 623/13/5
f 625/13/5 619/13/5 624/13/5
f 627/12/5 622/12/5 621/12/5
f 628/12/5 622/12/5 627/12/5
f 629/12/5 626/12/5 625/12/5
f 630/12/5 626/12/5 629/12/5
f 633/2/5 632/2/5 631/2/5
f 634/2/5 632/2/5 633/2/5
f 635/4/5 634/4/5 633/4/5
f 636/4/5 634/4/5 635/4/5
f 639/9/5 638/9/5 637/9/5
f 643/9/5 639/9/5 637/9/5
f 643/9/5 640/9/5 639/9/5
f 644/9/5 640/9/5 643/9/5
f 645/5/5 642/5/5 641/5/5
f 646/5/5 642/5/5 645/5/5
f 649/4/5 648/4/5 647/4/5
f 650/4/5 648/4/5 649/4/5
f 652/3/5 650/3/5 649/3/5
f 653/3/5 650/3/5 652/3/5
f 655/2/5 652/2/5 651/2/5
f 656/2/5 652/2/5 655/2/5
f 657/2/5 654/2/5 653/2/5
f 658/2/5 654/2/5 657/2/5
f 659/4/5 656/4/5 655/4/5
f 660/4/5 656/4/5 659/4/5
f 661/4/5 658/4/5 657/4/5
f 662/4/5 658/4/5 661/4/5
f 667/9/5 664/9/5 663/9/5
f 668/9/5 664/9/5 667/9/5
f 669/9/5 666/9/5 665/9/5
f 670/9/5 666/9/5 669/9/5
f 673/9/5 672/9/5 671/9/5
f 674/9/5 672/9/5 673/9/5
f 678/14/5 676/14/5 675/14/5
f 679/14/5 676/14/5 678/14/5
f 680/14/5 676/14/5 679/14/5
f 681/14/5 676/14/5 680/14/5
f 684/9/5 678/9/5 677/9/5
f 685/9/5 678/9/5 684/9/5
f 686/9/5 680/9/5 679/9/5
f 687/9/5 680/9/5 686/9/5
f 688/9/5 682/9/5 681/9/5
f 689/9/5 682/9/5 688/9/5
f 691/9/5 684/9/5 683/9/5
f 692/9/5 690/9/5 689/9/5
f 693/9/5 690/9/5 692/9/5
f 694/9/5 691/9/5 683/9/5
f 697/9/5 694/9/5 683/9/5
f 698/9/5 694/9/5 697/9/5
f 701/9/5 696/9/5 695/9/5
f 702/9/5 696/9/5 701/9/5
f 703/9/5 699/9/5 698/9/5
f 704/9/5 699/9/5 703/9/5
f 707/9/5 701/9/5 700/9/5
f 708/9/5 701/9/5 707/9/5
f 709/9/5 705/9/5 704/9/5
f 710/9/5 705/9/5 709/9/5
f 711/9/5 707/9/5 706/9/5
f 712/9/5 707/9/5 711/9/5
f 716/14/5 714/14/5 713/14/5
f 717/14/5 714/14/5 716/14/5
f 720/14/5 716/14/5 715/14/5
f 721/14/5 716/14/5 720/14/5
f 722/14/5 718/14/5 717/14/5
f 723/14/5 718/14/5 722/14/5
f 725/9/5 720/9/5 719/9/5
f 726/9/5 720/9/5 725/9/5
f 727/9/5 724/9/5 723/9/5
f 728/9/5 724/9/5 727/9/5
f 733/9/5 730/9/5 729/9/5
f 734/9/5 730/9/5 733/9/5
f 737/9/5 732/9/5 731/9/5
f 738/9/5 732/9/5 737/9/5
f 739/9/5 735/9/5 734/9/5
f 740/9/5 735/9/5 739/9/5
f 741/9/5 737/9/5 736/9/5
f 742/9/5 737/9/5 741/9/5
f 743/9/5 741/9/5 740/9/5
f 744/9/5 741/9/5 743/9/5
f 745/16/6 746/16/6 749/16/6
f 749/16/6 746/16/6 750/16/6
f 747/16/6 748/16/6 751/16/6
f 751/16/6 748/16/6 752/16/6
f 753/5/6 754/5/6 755/5/6
f 755/5/6 754/5/6 756/5/6
f 757/9/6 758/9/6 759/9/6
f 757/9/6 759/9/6 763/9/6
f 759/9/6 760/9/6 763/9/6
f 763/9/6 760/9/6 764/9/6
f 761/7/6 762/7/6 765/7/6
f 765/7/6 762/7/6 766/7/6
f 767/12/6 768/12/6 773/12/6
f 768/12/6 769/12/6 773/12/6
f 773/12/6 769/12/6 774/12/6
f 771/12/6 772/12/6 775/12/6
f 770/12/6 771/12/6 775/12/6
f 775/12/6 772/12/6 776/12/6
f 777/4/6 778/4/6 779/4/6
f 779/4/6 778/4/6 780/4/6
f 779/3/6 780/3/6 782/3/6
f 782/3/6 780/3/6 783/3/6
f 781/2/6 782/2/6 785/2/6
f 785/2/6 782/2/6 786/2/6
f 783/2/6 784/2/6 787/2/6
f 787/2/6 784/2/6 788/2/6
f 785/4/6 786/4/6 789/4/6
f 789/4/6 786/4/6 790/4/6
f 787/4/6 788/4/6 791/4/6
f 791/4/6 788/4/6 792/4/6
f 790/3/6 791/3/6 793/3/6
f 793/3/6 791/3/6 794/3/6
f 795/2/6 796/2/6 797/2/6
f 797/2/6 796/2/6 798/2/6
f 797/4/6 798/4/6 799/4/6
f 799/4/6 798/4/6 800/4/6
f 801/9/6 802/9/6 803/9/6
f 803/9/6 802/9/6 804/9/6
f 805/14/6 806/14/6 808/14/6
f 808/14/6 806/14/6 809/14/6
f 807/14/6 808/14/6 812/14/6
f 809/14/6 810/14/6 812/14/6
f 808/14/6 809/14/6 812/14/6
f 812/14/6 810/14/6 813/14/6
f 813/14/6 810/14/6 814/14/6
f 814/14/6 810/14/6 815/14/6
f 811/9/6 812/9/6 817/9/6
f 817/9/6 812/9/6 818/9/6
f 815/9/6 816/9/6 819/9/6
f 819/9/6 816/9/6 820/9/6
f 818/9/6 819/9/6 821/9/6
f 821/9/6 819/9/6 822/9/6
f 823/9/6 824/9/6 827/9/6
f 824/14/6 825/14/6 827/14/6
f 825/9/6 826/9/6 828/9/6
f 827/14/6 825/14/6 828/14/6
f 823/9/6 827/9/6 829/9/6
f 828/9/6 826/9/6 830/9/6
f 823/9/6 829/9/6 831/9/6
f 829/9/6 830/9/6 831/9/6
f 830/9/6 826/9/6 832/9/6
f 831/9/6 830/9/6 832/9/6
f 833/9/6 834/9/6 835/9/6
f 835/9/6 834/9/6 836/9/6
